<svg width="710" height="190" xmlns="http://www.w3.org/2000/svg" xml:space="preserve" version="1.1">

 <g>
  <title>Layer 1</title>
  <path id="svg_1" fill="#595A5C" d="m49.32,38.04c3.58,0 6.62,1.26 9.13,3.79c2.51,2.53 3.77,5.59 3.77,9.19c0,3.59 -1.26,6.66 -3.77,9.18c-2.51,2.53 -5.56,3.79 -9.13,3.79s-6.62,-1.26 -9.14,-3.79c-2.51,-2.52 -3.76,-5.59 -3.76,-9.18c0,-3.6 1.25,-6.66 3.76,-9.19c2.52,-2.52 5.57,-3.79 9.14,-3.79zm-10.86,33.69l21.87,0l0,74.2l-21.87,0l0,-74.2z" class="st0"/>
  <path id="svg_2" fill="#595A5C" d="m121.42,68.8c4.38,0 8.46,0.83 12.25,2.48c3.79,1.66 7.12,3.92 9.99,6.78c2.86,2.86 5.13,6.2 6.78,9.98c1.65,3.79 2.48,7.87 2.48,12.25l0,45.63l-21.87,0l0,-41.41c0,-2.14 -0.44,-4.17 -1.31,-6.12c-0.88,-1.94 -2.04,-3.64 -3.5,-5.1s-3.16,-2.6 -5.1,-3.43c-1.95,-0.83 -3.99,-1.24 -6.13,-1.24c-2.24,0 -4.33,0.44 -6.27,1.31c-1.94,0.87 -3.64,2.04 -5.1,3.49s-2.63,3.17 -3.5,5.11c-0.88,1.94 -1.31,4.03 -1.31,6.26l0,41.11l-21.87,0l0,-74.2l21.87,0l0,8.45c3.01,-3.4 6.39,-6.15 10.13,-8.23c3.73,-2.07 7.89,-3.12 12.46,-3.12z" class="st0"/>
  <path id="svg_3" fill="#595A5C" d="m222.02,146.08c-2.14,0.77 -4.98,1.43 -8.53,1.97c-3.55,0.53 -8.53,0.8 -14.94,0.8c-3.21,0 -6.2,-0.6 -8.97,-1.82c-2.77,-1.21 -5.18,-2.86 -7.22,-4.96c-2.04,-2.09 -3.67,-4.52 -4.88,-7.29c-1.22,-2.77 -1.82,-5.76 -1.82,-8.97l-0.15,-35.13l-15.16,0l0,-18.95l15.16,0l0,-23.63l21.87,0l0,23.63l18.08,0l-4.23,18.95l-13.85,0l0,30.61c0.1,2.14 0.9,3.96 2.41,5.47c1.5,1.51 3.38,2.26 5.61,2.26c3.79,0 6.54,-0.41 8.24,-1.24c1.7,-0.83 2.94,-1.43 3.72,-1.83l4.66,20.13z" class="st0"/>
  <path id="svg_4" fill="#595A5C" d="m266.49,68.8c5.83,0 11.25,1.07 16.26,3.21c5,2.14 9.33,5.03 12.98,8.68c3.64,3.64 6.51,7.9 8.6,12.76c2.09,4.87 3.13,10.02 3.13,15.46c0,1.06 -0.05,2.19 -0.15,3.35s-0.24,2.29 -0.44,3.35l-59.05,0c1.26,3.66 3.48,6.81 6.64,9.45c3.16,2.65 7.16,3.97 12.03,3.97c3.5,0 6.93,-0.68 10.28,-2.04c3.35,-1.36 5.91,-3.16 7.65,-5.39l17.64,10.81c-1.95,2.55 -4.23,4.82 -6.85,6.83c-2.63,2.01 -5.49,3.72 -8.6,5.14c-3.12,1.42 -6.37,2.51 -9.77,3.3c-3.4,0.79 -6.85,1.17 -10.35,1.17c-5.83,0 -11.3,-1.04 -16.4,-3.13c-5.1,-2.09 -9.53,-4.96 -13.27,-8.6c-3.74,-3.64 -6.71,-7.9 -8.89,-12.76c-2.19,-4.86 -3.28,-10.01 -3.28,-15.45c0,-5.54 1.11,-10.77 3.35,-15.68c2.23,-4.91 5.25,-9.15 9.04,-12.76c3.79,-3.59 8.21,-6.44 13.27,-8.53c5.05,-2.09 10.44,-3.14 16.18,-3.14zm0,19.84c-4.38,0 -8.09,1.16 -11.15,3.5c-3.07,2.33 -5.37,5.15 -6.93,8.45l36.16,0c-1.46,-3.3 -3.74,-6.12 -6.85,-8.45c-3.12,-2.34 -6.86,-3.5 -11.23,-3.5z" class="st0"/>
  <path id="svg_5" fill="#595A5C" d="m363.43,68.8c2.33,0 4.64,0.18 6.93,0.51c2.28,0.34 4.45,0.9 6.49,1.68l-4.52,19.82c-0.2,-0.59 -1.17,-1.1 -2.92,-1.53c-1.75,-0.44 -3.5,-0.65 -5.25,-0.65c-3.5,0 -6.61,0.39 -9.33,1.16c-2.72,0.78 -5.03,1.73 -6.93,2.85c-1.9,1.11 -3.35,2.33 -4.38,3.64c-1.02,1.31 -1.53,2.55 -1.53,3.72l0,45.92l-21.87,0l0,-74.2l21.88,0l0,11.52c0.39,-1.46 1.39,-3.04 2.99,-4.74c1.6,-1.7 3.45,-3.26 5.54,-4.66c2.09,-1.41 4.28,-2.6 6.56,-3.58c2.28,-0.96 4.4,-1.46 6.34,-1.46z" class="st0"/>
  <path id="svg_6" fill="#595A5C" d="m454.56,132.69c-3.7,5 -8.75,8.94 -15.16,11.83c-6.42,2.89 -13.41,4.33 -21,4.33c-5.34,0 -10.44,-1.04 -15.29,-3.13c-4.85,-2.09 -9.09,-4.96 -12.71,-8.6c-3.62,-3.64 -6.52,-7.9 -8.69,-12.76c-2.17,-4.86 -3.26,-10.01 -3.26,-15.45c0,-5.54 1.03,-10.77 3.11,-15.68s4.92,-9.15 8.55,-12.76c3.62,-3.59 7.86,-6.44 12.71,-8.53c4.85,-2.09 10.04,-3.14 15.58,-3.14c7.68,0 14.65,1.44 20.92,4.3c6.27,2.86 11.25,6.73 14.95,11.59l-17.35,11.95c-1.65,-2.43 -4.01,-4.37 -7.07,-5.83c-3.06,-1.46 -6.88,-2.19 -11.44,-2.19c-2.53,0 -4.88,0.54 -7.07,1.6c-2.19,1.06 -4.11,2.51 -5.76,4.36c-1.65,1.84 -2.94,3.99 -3.87,6.47c-0.93,2.47 -1.39,5.06 -1.39,7.77c0,2.61 0.49,5.13 1.46,7.55c0.97,2.42 2.31,4.57 4.01,6.47c1.7,1.88 3.64,3.39 5.83,4.51c2.19,1.11 4.45,1.67 6.78,1.67c4.38,0 8.07,-0.68 11.08,-2.04c3.02,-1.36 5.3,-3.11 6.86,-5.24l18.22,10.95z" class="st0"/>
  <path id="svg_7" fill="#231F20" d="m615.76,71.72l0,5.68c-3.11,-2.52 -6.52,-4.59 -10.21,-6.19c-3.69,-1.61 -7.58,-2.41 -11.66,-2.41c-5.44,0 -10.6,1.05 -15.45,3.14c-4.86,2.09 -9.12,4.93 -12.76,8.53c-3.65,3.6 -6.54,7.84 -8.68,12.75c-2.14,4.91 -3.2,10.14 -3.2,15.68c0,0.84 0.02,1.67 0.08,2.49c5.12,0.79 9.6,3.1 13.44,6.93c4.82,4.83 7.24,10.68 7.24,17.55c0,2.64 -0.36,5.13 -1.07,7.46c1.5,0.89 3.07,1.68 4.72,2.38c4.91,2.09 10.14,3.13 15.68,3.13c4.08,0 7.97,-0.8 11.66,-2.42s7.1,-3.74 10.21,-6.39l0,5.9l21.87,0l0,-74.21l-21.87,0zm-0.87,45.02c-1.08,2.47 -2.53,4.61 -4.38,6.4c-1.85,1.78 -4.01,3.21 -6.49,4.28c-2.48,1.07 -5.08,1.6 -7.8,1.6c-2.82,0 -5.46,-0.53 -7.94,-1.6s-4.62,-2.5 -6.42,-4.28c-1.8,-1.79 -3.23,-3.93 -4.3,-6.4c-1.07,-2.46 -1.6,-5.11 -1.6,-7.92c0,-2.8 0.53,-5.44 1.6,-7.91c1.07,-2.47 2.5,-4.61 4.3,-6.4c1.8,-1.78 3.94,-3.21 6.42,-4.28c2.48,-1.06 5.12,-1.6 7.94,-1.6c2.72,0 5.32,0.54 7.8,1.6c2.48,1.07 4.64,2.5 6.49,4.28c1.85,1.79 3.3,3.93 4.38,6.4c1.06,2.47 1.6,5.11 1.6,7.91c0,2.81 -0.54,5.46 -1.6,7.92z" class="st1"/>
  <path id="svg_8" fill="#231F20" d="m664.68,38.04c3.58,0 6.62,1.26 9.13,3.79c2.51,2.53 3.77,5.59 3.77,9.19c0,3.59 -1.26,6.66 -3.77,9.18c-2.51,2.53 -5.56,3.79 -9.13,3.79c-3.58,0 -6.62,-1.26 -9.14,-3.79c-2.51,-2.52 -3.76,-5.59 -3.76,-9.18c0,-3.6 1.25,-6.66 3.76,-9.19c2.51,-2.52 5.56,-3.79 9.14,-3.79zm-10.87,33.69l21.87,0l0,74.2l-21.87,0l0,-74.2z" class="st1"/>
  <path id="svg_9" fill="#231F20" d="m562.69,133.99c-0.37,-2.8 -1.59,-5.23 -3.67,-7.31c-0.54,-0.53 -1.1,-1.01 -1.68,-1.43c-2.17,-1.57 -4.67,-2.36 -7.51,-2.36c-3.59,0 -6.63,1.27 -9.11,3.79c-2.48,2.53 -3.71,5.6 -3.71,9.19c0,3.6 1.23,6.66 3.71,9.19c2.48,2.52 5.52,3.78 9.11,3.78c3.6,0 6.66,-1.26 9.19,-3.78c2.53,-2.53 3.79,-5.59 3.79,-9.19c0,-0.64 -0.04,-1.27 -0.12,-1.88z" class="st1"/>
  <path id="svg_10" fill="#595A5C" d="m475.21,143.48c-6.32,-3.58 -11.37,-8.45 -15.16,-14.63c-3.72,-6.18 -5.58,-12.85 -5.58,-20.01c0,-7.09 1.84,-13.73 5.53,-19.9c3.68,-6.18 8.72,-11.05 15.11,-14.63c6.32,-3.58 13.23,-5.38 20.75,-5.38c7.51,0 14.44,1.78 20.79,5.32c6.35,3.55 11.42,8.41 15.21,14.59c3.72,6.25 5.58,12.92 5.58,20.01c0,7.16 -1.86,13.83 -5.58,20.01c-3.72,6.18 -8.77,11.05 -15.16,14.63c-6.39,3.58 -13.34,5.37 -20.85,5.37c-7.45,-0.01 -14.32,-1.8 -20.64,-5.38zm8.32,-56.02c-3.79,2.25 -6.85,5.3 -9.16,9.16c-2.25,3.86 -3.37,7.93 -3.37,12.21c0,4.35 1.12,8.44 3.37,12.27c2.24,3.83 5.26,6.9 9.05,9.21c3.79,2.32 7.93,3.47 12.43,3.47c4.42,0 8.56,-1.15 12.42,-3.47c3.86,-2.31 6.91,-5.41 9.16,-9.26c2.18,-3.72 3.26,-7.79 3.26,-12.21c0,-4.36 -1.11,-8.42 -3.32,-12.21c-2.21,-3.79 -5.21,-6.85 -9,-9.16c-3.93,-2.25 -8.11,-3.37 -12.53,-3.37c-4.42,-0.01 -8.52,1.12 -12.31,3.36z" class="st0"/>
  <g id="svg_11">
   <path id="svg_12" stroke-miterlimit="10" stroke-width="3.2261" stroke="#6E6F71" fill="none" d="m481.22,120.78c6.54,8.03 18.35,9.25 26.39,2.71s9.25,-18.35 2.71,-26.39c-6.54,-8.03 -18.35,-9.25 -26.39,-2.71" class="st2"/>
   <ellipse id="svg_13" stroke-miterlimit="10" stroke-width="3.2261" stroke="#6E6F71" fill="none" ry="18.78" rx="18.78" cy="134.59885" cx="639.17888" class="st2" transform="matrix(0.7185 -0.6955 0.6955 0.7185 -57.1044 456.789)"/>
   <ellipse id="svg_14" stroke-miterlimit="10" stroke-width="3.2261" stroke="#6E6F71" fill="none" ry="11.08" rx="11.08" cy="107.98427" cx="570.95279" class="st2" transform="matrix(0.925 -0.3799 0.3799 0.925 -73.397 225.929)"/>
   <ellipse id="svg_15" fill="#6E6F71" ry="4.4" rx="4.4" cy="109.77008" cx="615.27384" class="st3" transform="matrix(0.7772 -0.6293 0.6293 0.7772 -60.4543 394.465)"/>
   <ellipse id="svg_16" fill="#6E6F71" ry="4.4" rx="4.4" cy="142.07008" cx="614.09384" class="st3" transform="matrix(0.7772 -0.6293 0.6293 0.7772 -81.0398 400.918)"/>
   <ellipse id="svg_17" fill="#6E6F71" ry="4.4" rx="4.4" cy="126.06008" cx="643.00384" class="st3" transform="matrix(0.7772 -0.6293 0.6293 0.7772 -64.524 415.542)"/>
  </g>
 </g>
</svg>