<?xml version="1.0" encoding="utf-8"?>
<!-- Generator: Adobe Illustrator 24.3.0, SVG Export Plug-In . SVG Version: 6.00 Build 0)  -->
<svg version="1.1" id="Layer_1" xmlns="http://www.w3.org/2000/svg" xmlns:xlink="http://www.w3.org/1999/xlink" x="0px" y="0px"
	 viewBox="0 0 792 612" style="enable-background:new 0 0 792 612;" xml:space="preserve">
<style type="text/css">
	.st0{fill:#595A5C;}
	.st1{fill:#231F20;}
	.st2{fill:none;stroke:#6E6F71;stroke-width:3.2261;stroke-miterlimit:10;}
	.st3{fill:#6E6F71;}
</style>
<path class="st0" d="M89.32,228.04c3.58,0,6.62,1.26,9.13,3.79c2.51,2.53,3.77,5.59,3.77,9.19c0,3.59-1.26,6.66-3.77,9.18
	c-2.51,2.53-5.56,3.79-9.13,3.79s-6.62-1.26-9.14-3.79c-2.51-2.52-3.76-5.59-3.76-9.18c0-3.6,1.25-6.66,3.76-9.19
	C82.7,229.31,85.75,228.04,89.32,228.04z M78.46,261.73h21.87v74.2H78.46V261.73z"/>
<path class="st0" d="M161.42,258.8c4.38,0,8.46,0.83,12.25,2.48c3.79,1.66,7.12,3.92,9.99,6.78c2.86,2.86,5.13,6.2,6.78,9.98
	c1.65,3.79,2.48,7.87,2.48,12.25v45.63h-21.87v-41.41c0-2.14-0.44-4.17-1.31-6.12c-0.88-1.94-2.04-3.64-3.5-5.1s-3.16-2.6-5.1-3.43
	c-1.95-0.83-3.99-1.24-6.13-1.24c-2.24,0-4.33,0.44-6.27,1.31c-1.94,0.87-3.64,2.04-5.1,3.49s-2.63,3.17-3.5,5.11
	c-0.88,1.94-1.31,4.03-1.31,6.26v41.11h-21.87v-74.2h21.87v8.45c3.01-3.4,6.39-6.15,10.13-8.23
	C152.69,259.85,156.85,258.8,161.42,258.8z"/>
<path class="st0" d="M262.02,336.08c-2.14,0.77-4.98,1.43-8.53,1.97c-3.55,0.53-8.53,0.8-14.94,0.8c-3.21,0-6.2-0.6-8.97-1.82
	c-2.77-1.21-5.18-2.86-7.22-4.96c-2.04-2.09-3.67-4.52-4.88-7.29c-1.22-2.77-1.82-5.76-1.82-8.97l-0.15-35.13h-15.16v-18.95h15.16
	V238.1h21.87v23.63h18.08l-4.23,18.95h-13.85v30.61c0.1,2.14,0.9,3.96,2.41,5.47c1.5,1.51,3.38,2.26,5.61,2.26
	c3.79,0,6.54-0.41,8.24-1.24c1.7-0.83,2.94-1.43,3.72-1.83L262.02,336.08z"/>
<path class="st0" d="M306.49,258.8c5.83,0,11.25,1.07,16.26,3.21c5,2.14,9.33,5.03,12.98,8.68c3.64,3.64,6.51,7.9,8.6,12.76
	c2.09,4.87,3.13,10.02,3.13,15.46c0,1.06-0.05,2.19-0.15,3.35s-0.24,2.29-0.44,3.35h-59.05c1.26,3.66,3.48,6.81,6.64,9.45
	c3.16,2.65,7.16,3.97,12.03,3.97c3.5,0,6.93-0.68,10.28-2.04c3.35-1.36,5.91-3.16,7.65-5.39l17.64,10.81
	c-1.95,2.55-4.23,4.82-6.85,6.83c-2.63,2.01-5.49,3.72-8.6,5.14c-3.12,1.42-6.37,2.51-9.77,3.3c-3.4,0.79-6.85,1.17-10.35,1.17
	c-5.83,0-11.3-1.04-16.4-3.13c-5.1-2.09-9.53-4.96-13.27-8.6c-3.74-3.64-6.71-7.9-8.89-12.76c-2.19-4.86-3.28-10.01-3.28-15.45
	c0-5.54,1.11-10.77,3.35-15.68c2.23-4.91,5.25-9.15,9.04-12.76c3.79-3.59,8.21-6.44,13.27-8.53
	C295.36,259.85,300.75,258.8,306.49,258.8z M306.49,278.64c-4.38,0-8.09,1.16-11.15,3.5c-3.07,2.33-5.37,5.15-6.93,8.45h36.16
	c-1.46-3.3-3.74-6.12-6.85-8.45C314.6,279.8,310.86,278.64,306.49,278.64z"/>
<path class="st0" d="M403.43,258.8c2.33,0,4.64,0.18,6.93,0.51c2.28,0.34,4.45,0.9,6.49,1.68l-4.52,19.82
	c-0.2-0.59-1.17-1.1-2.92-1.53c-1.75-0.44-3.5-0.65-5.25-0.65c-3.5,0-6.61,0.39-9.33,1.16c-2.72,0.78-5.03,1.73-6.93,2.85
	c-1.9,1.11-3.35,2.33-4.38,3.64c-1.02,1.31-1.53,2.55-1.53,3.72v45.92h-21.87v-74.2H382v11.52c0.39-1.46,1.39-3.04,2.99-4.74
	c1.6-1.7,3.45-3.26,5.54-4.66c2.09-1.41,4.28-2.6,6.56-3.58C399.37,259.3,401.49,258.8,403.43,258.8z"/>
<path class="st0" d="M494.56,322.69c-3.7,5-8.75,8.94-15.16,11.83c-6.42,2.89-13.41,4.33-21,4.33c-5.34,0-10.44-1.04-15.29-3.13
	c-4.85-2.09-9.09-4.96-12.71-8.6c-3.62-3.64-6.52-7.9-8.69-12.76c-2.17-4.86-3.26-10.01-3.26-15.45c0-5.54,1.03-10.77,3.11-15.68
	s4.92-9.15,8.55-12.76c3.62-3.59,7.86-6.44,12.71-8.53c4.85-2.09,10.04-3.14,15.58-3.14c7.68,0,14.65,1.44,20.92,4.3
	c6.27,2.86,11.25,6.73,14.95,11.59l-17.35,11.95c-1.65-2.43-4.01-4.37-7.07-5.83c-3.06-1.46-6.88-2.19-11.44-2.19
	c-2.53,0-4.88,0.54-7.07,1.6c-2.19,1.06-4.11,2.51-5.76,4.36c-1.65,1.84-2.94,3.99-3.87,6.47c-0.93,2.47-1.39,5.06-1.39,7.77
	c0,2.61,0.49,5.13,1.46,7.55c0.97,2.42,2.31,4.57,4.01,6.47c1.7,1.88,3.64,3.39,5.83,4.51c2.19,1.11,4.45,1.67,6.78,1.67
	c4.38,0,8.07-0.68,11.08-2.04c3.02-1.36,5.3-3.11,6.86-5.24L494.56,322.69z"/>
<path class="st1" d="M655.76,261.72v5.68c-3.11-2.52-6.52-4.59-10.21-6.19c-3.69-1.61-7.58-2.41-11.66-2.41
	c-5.44,0-10.6,1.05-15.45,3.14c-4.86,2.09-9.12,4.93-12.76,8.53c-3.65,3.6-6.54,7.84-8.68,12.75c-2.14,4.91-3.2,10.14-3.2,15.68
	c0,0.84,0.02,1.67,0.08,2.49c5.12,0.79,9.6,3.1,13.44,6.93c4.82,4.83,7.24,10.68,7.24,17.55c0,2.64-0.36,5.13-1.07,7.46
	c1.5,0.89,3.07,1.68,4.72,2.38c4.91,2.09,10.14,3.13,15.68,3.13c4.08,0,7.97-0.8,11.66-2.42s7.1-3.74,10.21-6.39v5.9h21.87v-74.21
	H655.76z M654.89,306.74c-1.08,2.47-2.53,4.61-4.38,6.4c-1.85,1.78-4.01,3.21-6.49,4.28c-2.48,1.07-5.08,1.6-7.8,1.6
	c-2.82,0-5.46-0.53-7.94-1.6s-4.62-2.5-6.42-4.28c-1.8-1.79-3.23-3.93-4.3-6.4c-1.07-2.46-1.6-5.11-1.6-7.92
	c0-2.8,0.53-5.44,1.6-7.91c1.07-2.47,2.5-4.61,4.3-6.4c1.8-1.78,3.94-3.21,6.42-4.28c2.48-1.06,5.12-1.6,7.94-1.6
	c2.72,0,5.32,0.54,7.8,1.6c2.48,1.07,4.64,2.5,6.49,4.28c1.85,1.79,3.3,3.93,4.38,6.4c1.06,2.47,1.6,5.11,1.6,7.91
	C656.49,301.63,655.95,304.28,654.89,306.74z"/>
<path class="st1" d="M704.68,228.04c3.58,0,6.62,1.26,9.13,3.79c2.51,2.53,3.77,5.59,3.77,9.19c0,3.59-1.26,6.66-3.77,9.18
	c-2.51,2.53-5.56,3.79-9.13,3.79c-3.58,0-6.62-1.26-9.14-3.79c-2.51-2.52-3.76-5.59-3.76-9.18c0-3.6,1.25-6.66,3.76-9.19
	C698.05,229.31,701.1,228.04,704.68,228.04z M693.81,261.73h21.87v74.2h-21.87V261.73z"/>
<path class="st1" d="M602.69,323.99c-0.37-2.8-1.59-5.23-3.67-7.31c-0.54-0.53-1.1-1.01-1.68-1.43c-2.17-1.57-4.67-2.36-7.51-2.36
	c-3.59,0-6.63,1.27-9.11,3.79c-2.48,2.53-3.71,5.6-3.71,9.19c0,3.6,1.23,6.66,3.71,9.19c2.48,2.52,5.52,3.78,9.11,3.78
	c3.6,0,6.66-1.26,9.19-3.78c2.53-2.53,3.79-5.59,3.79-9.19C602.81,325.23,602.77,324.6,602.69,323.99z"/>
<path class="st0" d="M515.21,333.48c-6.32-3.58-11.37-8.45-15.16-14.63c-3.72-6.18-5.58-12.85-5.58-20.01
	c0-7.09,1.84-13.73,5.53-19.9c3.68-6.18,8.72-11.05,15.11-14.63c6.32-3.58,13.23-5.38,20.75-5.38c7.51,0,14.44,1.78,20.79,5.32
	c6.35,3.55,11.42,8.41,15.21,14.59c3.72,6.25,5.58,12.92,5.58,20.01c0,7.16-1.86,13.83-5.58,20.01
	c-3.72,6.18-8.77,11.05-15.16,14.63c-6.39,3.58-13.34,5.37-20.85,5.37C528.4,338.85,521.53,337.06,515.21,333.48z M523.53,277.46
	c-3.79,2.25-6.85,5.3-9.16,9.16c-2.25,3.86-3.37,7.93-3.37,12.21c0,4.35,1.12,8.44,3.37,12.27c2.24,3.83,5.26,6.9,9.05,9.21
	c3.79,2.32,7.93,3.47,12.43,3.47c4.42,0,8.56-1.15,12.42-3.47c3.86-2.31,6.91-5.41,9.16-9.26c2.18-3.72,3.26-7.79,3.26-12.21
	c0-4.36-1.11-8.42-3.32-12.21c-2.21-3.79-5.21-6.85-9-9.16c-3.93-2.25-8.11-3.37-12.53-3.37
	C531.42,274.09,527.32,275.22,523.53,277.46z"/>
<g>
	<path class="st2" d="M521.22,310.78c6.54,8.03,18.35,9.25,26.39,2.71s9.25-18.35,2.71-26.39c-6.54-8.03-18.35-9.25-26.39-2.71"/>
	
		<ellipse transform="matrix(0.7185 -0.6955 0.6955 0.7185 -57.1044 456.7885)" class="st2" cx="535.77" cy="298.94" rx="18.78" ry="18.78"/>
	
		<ellipse transform="matrix(0.925 -0.3799 0.3799 0.925 -73.397 225.9289)" class="st2" cx="535.77" cy="298.94" rx="11.08" ry="11.08"/>
	
		<ellipse transform="matrix(0.7772 -0.6293 0.6293 0.7772 -60.4543 394.4654)" class="st3" cx="526.8" cy="282.6" rx="4.4" ry="4.4"/>
	
		<ellipse transform="matrix(0.7772 -0.6293 0.6293 0.7772 -81.0398 400.9181)" class="st3" cx="525.62" cy="314.9" rx="4.4" ry="4.4"/>
	
		<ellipse transform="matrix(0.7772 -0.6293 0.6293 0.7772 -64.524 415.5421)" class="st3" cx="554.53" cy="298.89" rx="4.4" ry="4.4"/>
</g>
</svg>
